/* XPM */
static char * texturr_xpm[] = {
"70 70 475 2",
"  	c #FFFFFF",
". 	c #C3C3C3",
"+ 	c #5F5F5F",
"@ 	c #161514",
"# 	c #6B432A",
"$ 	c #D1814F",
"% 	c #FF914D",
"& 	c #DD8651",
"* 	c #74472B",
"= 	c #191615",
"- 	c #555555",
"; 	c #B8B8B8",
"> 	c #C7C7C7",
", 	c #646464",
"' 	c #151514",
") 	c #68422A",
"! 	c #CA7D4D",
"~ 	c #FE904D",
"{ 	c #F1F1F1",
"] 	c #9A9A9A",
"^ 	c #373737",
"/ 	c #2E231C",
"( 	c #905937",
"_ 	c #F28E50",
": 	c #FB904E",
"< 	c #AC6A42",
"[ 	c #4E3628",
"} 	c #1E1E1E",
"| 	c #808080",
"1 	c #E1E1E1",
"2 	c #F3F3F3",
"3 	c #9E9E9E",
"4 	c #393939",
"5 	c #2A201A",
"6 	c #8B5534",
"7 	c #EF8D50",
"8 	c #B0B0B0",
"9 	c #FBFBFB",
"0 	c #D4D4D4",
"a 	c #717171",
"b 	c #141414",
"c 	c #5F3E2A",
"d 	c #BE7649",
"e 	c #EA8B51",
"f 	c #835031",
"g 	c #221B17",
"h 	c #484848",
"i 	c #ABABAB",
"j 	c #FAFAFA",
"k 	c #D6D6D6",
"l 	c #737373",
"m 	c #593C2A",
"n 	c #B77146",
"o 	c #FD914D",
"p 	c #67422A",
"q 	c #201F1F",
"r 	c #777777",
"s 	c #DADADA",
"t 	c #F9F9F9",
"u 	c #AAAAAA",
"v 	c #474747",
"w 	c #221C17",
"x 	c #825031",
"y 	c #E98B51",
"z 	c #5E3E2A",
"A 	c #151515",
"B 	c #1B1714",
"C 	c #7B4C2E",
"D 	c #E48951",
"E 	c #F68F4F",
"F 	c #995E3A",
"G 	c #382A20",
"H 	c #3E3E3E",
"I 	c #A2A2A2",
"J 	c #F6F6F6",
"K 	c #818181",
"L 	c #1F1F1F",
"M 	c #4F3728",
"N 	c #AD6B42",
"O 	c #F38E50",
"P 	c #925A37",
"Q 	c #2F241D",
"R 	c #3A3A3A",
"S 	c #A0A0A0",
"T 	c #F4F4F4",
"U 	c #463225",
"V 	c #A2633C",
"W 	c #F9904E",
"X 	c #D98550",
"Y 	c #71452B",
"Z 	c #1F1D1C",
"` 	c #686868",
" .	c #CACACA",
"..	c #BABABA",
"+.	c #585858",
"@.	c #1B1816",
"#.	c #DE8751",
"$.	c #6C432A",
"%.	c #191818",
"&.	c #666666",
"*.	c #C9C9C9",
"=.	c #131211",
"-.	c #6D442A",
";.	c #D48250",
">.	c #A96840",
",.	c #4A3427",
"'.	c #2E2E2E",
").	c #909090",
"!.	c #EDEDED",
"~.	c #3E2D23",
"{.	c #9C603B",
"].	c #F78F4F",
"^.	c #F98F4F",
"/.	c #A0633C",
"(.	c #412F24",
"_.	c #2D2D2D",
":.	c #EBEBEB",
"<.	c #8D8D8D",
"[.	c #2B2B2B",
"}.	c #31251D",
"|.	c #935B38",
"1.	c #E68A51",
"2.	c #7E4D2F",
"3.	c #221D1A",
"4.	c #181717",
"5.	c #69422A",
"6.	c #CD7F4E",
"7.	c #E08851",
"8.	c #794A2D",
"9.	c #1E1B19",
"0.	c #595959",
"a.	c #BBBBBB",
"b.	c #C6C6C6",
"c.	c #636363",
"d.	c #0F0F0F",
"e.	c #5F3E2B",
"f.	c #BF764A",
"g.	c #FD904D",
"h.	c #B77247",
"i.	c #202020",
"j.	c #828282",
"k.	c #E2E2E2",
"l.	c #2D221B",
"m.	c #8F5836",
"n.	c #F18E50",
"o.	c #B26E44",
"p.	c #543929",
"q.	c #222222",
"r.	c #848484",
"s.	c #E4E4E4",
"t.	c #383838",
"u.	c #201915",
"v.	c #8A5535",
"w.	c #281F1A",
"x.	c #787878",
"y.	c #1A1A1A",
"z.	c #5C3D2A",
"A.	c #BB7448",
"B.	c #FE914D",
"C.	c #ED8C51",
"D.	c #875333",
"E.	c #271F1A",
"F.	c #4C4C4C",
"G.	c #AEAEAE",
"H.	c #727272",
"I.	c #C77B4C",
"J.	c #66412B",
"K.	c #B1B1B1",
"L.	c #4F4F4F",
"M.	c #211C18",
"N.	c #814F30",
"O.	c #E88B51",
"P.	c #C4794B",
"Q.	c #63402A",
"R.	c #1B1B1B",
"S.	c #995E39",
"T.	c #372920",
"U.	c #F2F2F2",
"V.	c #E8E8E8",
"W.	c #888888",
"X.	c #262626",
"Y.	c #AA6941",
"Z.	c #F58E50",
"`.	c #975D39",
" +	c #35281F",
".+	c #3F3F3F",
"++	c #A3A3A3",
"@+	c #D88450",
"#+	c #70452B",
"$+	c #1A1918",
"%+	c #606060",
"&+	c #C4C4C4",
"*+	c #C1C1C1",
"=+	c #5E5E5E",
"-+	c #1C1A18",
";+	c #72462A",
">+	c #DB8550",
",+	c #D68350",
"'+	c #6F452B",
")+	c #1D1C1B",
"!+	c #6C6C6C",
"~+	c #CECECE",
"{+	c #FA904E",
"]+	c #A5653E",
"^+	c #473226",
"/+	c #282828",
"(+	c #8A8A8A",
"_+	c #EAEAEA",
":+	c #989898",
"<+	c #353535",
"[+	c #3B2B21",
"}+	c #9B603B",
"|+	c #473326",
"1+	c #7C4C2F",
"2+	c #1E1A17",
"3+	c #525252",
"4+	c #B4B4B4",
"5+	c #FCFCFC",
"6+	c #D2D2D2",
"7+	c #707070",
"8+	c #1A1919",
"9+	c #4B3527",
"0+	c #A96841",
"a+	c #B57045",
"b+	c #583B2A",
"c+	c #7A7A7A",
"d+	c #DDDDDD",
"e+	c #A9A9A9",
"f+	c #464646",
"g+	c #2C221C",
"h+	c #8C5735",
"i+	c #F08D50",
"j+	c #ACACAC",
"k+	c #4A4A4A",
"l+	c #141211",
"m+	c #72462B",
"n+	c #DB8551",
"o+	c #EE8D50",
"p+	c #895534",
"q+	c #251C17",
"r+	c #414141",
"s+	c #A5A5A5",
"t+	c #F7F7F7",
"u+	c #E0E0E0",
"v+	c #5B3D2A",
"w+	c #B87247",
"x+	c #858585",
"y+	c #9A5E3A",
"z+	c #C67B4C",
"A+	c #64412B",
"B+	c #161515",
"C+	c #B9B9B9",
"D+	c #565656",
"E+	c #7E4E30",
"F+	c #BDBDBD",
"G+	c #5A5A5A",
"H+	c #100F0F",
"I+	c #CB7D4D",
"J+	c #35271F",
"K+	c #313131",
"L+	c #949494",
"M+	c #EEEEEE",
"N+	c #ECECEC",
"O+	c #8F8F8F",
"P+	c #919191",
"Q+	c #2B201A",
"R+	c #8D5736",
"S+	c #F08E50",
"T+	c #D58350",
"U+	c #6E442A",
"V+	c #161414",
"W+	c #1D1B1B",
"X+	c #815031",
"Y+	c #251F1B",
"Z+	c #CDCDCD",
"`+	c #101010",
" @	c #F5F5F5",
".@	c #A1A1A1",
"+@	c #3D3D3D",
"@@	c #382920",
"#@	c #BC7549",
"$@	c #212121",
"%@	c #1D1714",
"&@	c #E38951",
"*@	c #7A4B2F",
"=@	c #1B1715",
"-@	c #4B4B4B",
";@	c #ADADAD",
">@	c #D9D9D9",
",@	c #1F1F1E",
"'@	c #66412A",
")@	c #8F5837",
"!@	c #2F241E",
"~@	c #B46F45",
"{@	c #553A29",
"]@	c #757575",
"^@	c #D7D7D7",
"/@	c #4D4D4D",
"(@	c #29201B",
"_@	c #8A5534",
":@	c #CE7F4E",
"<@	c #1C1C1B",
"[@	c #171413",
"}@	c #DC8650",
"|@	c #231B16",
"1@	c #3B3B3B",
"2@	c #9F9F9F",
"3@	c #878787",
"4@	c #252525",
"5@	c #3C2C22",
"6@	c #C3794B",
"7@	c #623F2A",
"8@	c #111111",
"9@	c #C0C0C0",
"0@	c #5D5D5D",
"a@	c #221E1C",
"b@	c #1D1B1A",
"c@	c #141413",
"d@	c #69432A",
"e@	c #F48E50",
"f@	c #945B38",
"g@	c #34261E",
"h@	c #F0F0F0",
"i@	c #979797",
"j@	c #343434",
"k@	c #473225",
"l@	c #121111",
"m@	c #545454",
"n@	c #B7B7B7",
"o@	c #D0D0D0",
"p@	c #221C19",
"q@	c #A1633C",
"r@	c #433024",
"s@	c #1D1D1D",
"t@	c #7E7E7E",
"u@	c #DFDFDF",
"v@	c #1C1C1C",
"w@	c #201A16",
"x@	c #E18851",
"y@	c #784A2D",
"z@	c #161310",
"A@	c #444444",
"B@	c #A7A7A7",
"C@	c #F8F8F8",
"D@	c #FC904E",
"E@	c #B16D44",
"F@	c #523929",
"G@	c #6F6F6F",
"H@	c #EB8C50",
"I@	c #845132",
"J@	c #3F2D23",
"K@	c #9E613C",
"L@	c #F88F4F",
"M@	c #191716",
"N@	c #CF7F4F",
"O@	c #8D5735",
"P@	c #1E1916",
"Q@	c #4E4E4E",
"R@	c #241D19",
"S@	c #835132",
"T@	c #EB8C51",
"U@	c #1B1613",
"V@	c #7F4E30",
"W@	c #E78A51",
"X@	c #8C5635",
"Y@	c #29201A",
"Z@	c #513828",
"`@	c #B06D43",
" #	c #161616",
".#	c #C97C4D",
"+#	c #656565",
"@#	c #1F1C1A",
"##	c #77492D",
"$#	c #DF8751",
"%#	c #1E1E1D",
"&#	c #747474",
"*#	c #151312",
"=#	c #714529",
"-#	c #402E23",
";#	c #9F623C",
">#	c #F8904F",
",#	c #3D2C22",
"'#	c #3B2C22",
")#	c #D1D1D1",
"!#	c #D2814F",
"~#	c #201D1C",
"{#	c #131212",
"]#	c #483326",
"^#	c #2B211A",
"/#	c #8E5736",
"(#	c #F18D50",
"_#	c #7D4D2F",
":#	c #1A1613",
"<#	c #7C7C7C",
"[#	c #613F2A",
"}#	c #C2784B",
"|#	c #814F31",
"1#	c #241E1A",
"2#	c #121212",
"3#	c #28201B",
"4#	c #1E1814",
"5#	c #251D17",
"6#	c #333333",
"7#	c #64412A",
"8#	c #1B1A1A",
"9#	c #F58F50",
"0#	c #D78450",
"a#	c #121110",
"b#	c #1B1918",
"c#	c #161615",
"d#	c #6A432A",
"e#	c #A4653E",
"f#	c #2D221C",
"g#	c #1F1A17",
"h#	c #191919",
"i#	c #231C18",
"j#	c #835131",
"k#	c #EA8C51",
"l#	c #1C1918",
"m#	c #3F2E23",
"n#	c #A4653D",
"o#	c #181615",
"p#	c #1B1A19",
"q#	c #1E1D1C",
"r#	c #4A3426",
"s#	c #30241D",
"t#	c #925A38",
"u#	c #A6A6A6",
"v#	c #424242",
"w#	c #34271E",
"x#	c #965C39",
"y#	c #1D1815",
"z#	c #5F3F2B",
"A#	c #BF774A",
"B#	c #7B7B7B",
"C#	c #251E1A",
"D#	c #845232",
"E#	c #B3B3B3",
"F#	c #505050",
"G#	c #261E1A",
"H#	c #865233",
"I#	c #EC8C50",
"J#	c #261D17",
"K#	c #FC904D",
"L#	c #211A15",
"M#	c #E9E9E9",
"N#	c #AF6C42",
"O#	c #201D1B",
"P#	c #5C5C5C",
"Q#	c #75472B",
"R#	c #36281F",
"S#	c #A1623B",
"T#	c #34271F",
"U#	c #272727",
"V#	c #EFEFEF",
"W#	c #969696",
"X#	c #323232",
"Y#	c #9F613C",
"Z#	c #6F452A",
"`#	c #CE7F4F",
" $	c #DEDEDE",
".$	c #8F5937",
"+$	c #191512",
"@$	c #A4A4A4",
"#$	c #434343",
"$$	c #211B17",
"%$	c #E88A51",
"&$	c #895434",
"*$	c #E5E5E5",
"=$	c #131312",
"-$	c #C2C2C2",
";$	c #2F2F2F",
">$	c #382A21",
",$	c #191614",
"'$	c #676767",
"    . + @ # $ % % % % % % % % % % % % % % % % % % % % % % % % % % % & * = - ;             > , ' ) ! ~ % % % % % % % % % % % % % % % % % % % ",
"        { ] ^ / ( _ % % % % % % % % % % % % % % % % % % % % % % % % % % : < [ } | 1           2 3 4 5 6 7 % % % % % % % % % % % % % % % % % ",
"8 9           0 a b c d ~ % % % % % % % % % % % % % % % % % % % % % % % % % % e f g h i j           k l b m n o % % % % % % % % % % % % % % ",
"p q r s           t u v w x y % % % % % % % % % % % % % % % % % % % % % % % % % % ~ d z A l k           t u v B C D % % % % % % % % % % % % ",
"% E F G H I J           1 K L M N : % % % % % % % % % % % % % % % % % % % % % % % % % % O P Q R S T           1 | } U V W % % % % % % % % % ",
"% % % % X Y Z `  .            ..+.@.* #.% % % % % % % % % % % % % % % % % % % % % % % % % % % $ $.%.&.*.            ; - =.-.;.% % % % % % % ",
"% % % % % % : >.,.'.).!.          !.).'.~.{.].% % % % % % % % % % % % % % % % % % % % % % % % % % ^./.(._.).!.          :.<.[.}.|.O % % % % ",
"% % % % % % % % % 1.2.3.+...             .` 4.5.6.~ % % % % % % % % % % % % % % % % % % % % % % % % % % 7.8.9.0.a.            b.c.d.e.f.~ % ",
"% % % % % % % % % % % g.h.m i.j.k.          J I H l.m.n.% % % % % % % % % % % % % % % % % % % % % % % % % % g.o.p.q.r.s.          2 3 t.u.x ",
"% % % % % % % % % % % % % % 7 v.w.v u t           s x.y.z.A.B.% % % % % % % % % % % % % % % % % % % % % % % % % % C.D.E.F.G.9           0 H.",
"% % % % % % % % % % % % % % % % ~ I.J.y.H.0           9 K.L.M.N.O.% % % % % % % % % % % % % % % % % % % % % % % % % % B.P.Q.R.r s           ",
"% % % % % % % % % % % % % % % % % % % E S.T.^ ] U.          V.W.X.[ Y.: % % % % % % % % % % % % % % % % % % % % % % % % % % Z.`. +.+++J     ",
"% % % % % % % % % % % % % % % % % % % % % % @+#+$+%+&+            *+=+-+;+>+% % % % % % % % % % % % % % % % % % % % % % % % % % % ,+'+)+!+~+",
"% % % % % % % % % % % % % % % % % % % % % % % % {+]+^+/+(+_+          { :+<+[+}+].% % % % % % % % % % % % % % % % % % % % % % % % % % {+]+|+",
"% % % % % % % % % % % % % % % % % % % % % % % % % % % D 1+2+3+4+5+          6+7+8+p ! ~ % % % % % % % % % % % % % % % % % % % % % % % % % % ",
"9+0+: % % % % % % % % % % % % % % % % % % % % % % % % % % o a+b+R.c+d+          t e+f+g+h+i+% % % % % % % % % % % % % % % % % % % % % % % % ",
"j+k+l+m+n+% % % % % % % % % % % % % % % % % % % % % % % % % % % o+p+q+r+s+t+          u+| L v+w+g.% % % % % % % % % % % % % % % % % % % % % ",
"    s.x+q.[+y+E % % % % % % % % % % % % % % % % % % % % % % % % % % ~ z+A+B+!+~+            C+D+3.E+1.% % % % % % % % % % % % % % % % % % % ",
"          F+G+H+) I+~ % % % % % % % % % % % % % % % % % % % % % % % % % % Z.`.J+K+L+M+          N+O+_.,.>.: % % % % % % % % % % % % % % % % ",
"O+!.          M+P+K+Q+R+S+% % % % % % % % % % % % % % % % % % % % % % % % % % % T+U+V+G+F+            *.&.W+#+@+% % % % % % % % % % % % % % ",
"X+Y++...            Z+!+`+v+A.B.% % % % % % % % % % % % % % % % % % % % % % % % % % W V U q.x+s.           @.@+@@@S.E % % % % % % % % % % % ",
"% B.#@z $@j.1           t+s+r+%@N.y % % % % % % % % % % % % % % % % % % % % % % % % % % % &@*@=@-@;@j           >@r ,@'@I.~ % % % % % % % % ",
"% % % % _ )@!@v u t           d+c+R.[ Y.: % % % % % % % % % % % % % % % % % % % % % % % % % % g.~@{@A ]@^@          9 8 /@(@_@7 % % % % % % ",
"% % % % % % ~ :@5.<@H.0           5+4+3+[@m+}@% % % % % % % % % % % % % % % % % % % % % % % % % % % C.D.|@1@2@T           V.3@4@b+n o % % % ",
"% % % % % % % % % ].{.5@^ ] U.          _+(+/+5@{.].% % % % % % % % % % % % % % % % % % % % % % % % % % B.6@7@8@, >             9@0@a@1+D % ",
"% % % % % % % % % % % % }@m+b@%+&+            &+%+c@d@:@~ % % % % % % % % % % % % % % % % % % % % % % % % % % e@f@g@[.<.:.          h@i@j@k@",
"% % % % % % % % % % % % % % : Y.[ /+(+_+          U.] ^ l.)@_ % % % % % % % % % % % % % % % % % % % % % % % % % % % ;.-.l@m@n@5+          o@",
"% % % % % % % % % % % % % % % % % y N.p@3+4+5+          0 H.A z #@B.% % % % % % % % % % % % % % % % % % % % % % % % % % W q@r@s@t@u@        ",
"% % % % % % % % % % % % % % % % % % % B.A.z.v@c+d+          t u v w@X+y % % % % % % % % % % % % % % % % % % % % % % % % % % % x@y@z@A@B@C@  ",
"% % % % % % % % % % % % % % % % % % % % % % S+R+Q+r+s+t+          1 j.i.M N D@% % % % % % % % % % % % % % % % % % % % % % % % % % g.E@F@8@G@",
"% % % % % % % % % % % % % % % % % % % % % % % % ~ I+) 4.!+~+            ..+.@.* #.% % % % % % % % % % % % % % % % % % % % % % % % % % % H@I@",
"% % % % % % % % % % % % % % % % % % % % % % % % % % % E y+[+K+L+M+          !.).'.J@K@L@% % % % % % % % % % % % % % % % % % % % % % % % % % ",
"% % % % % % % % % % % % % % % % % % % % % % % % % % % % % % n+m+M@G+F+             .` %.# N@% % % % % % % % % % % % % % % % % % % % % % % % ",
"! ~ % % % % % % % % % % % % % % % % % % % % % % % % % % % % % % : 0+9+q.x+s.          J I H / ( _ % % % % % % % % % % % % % % % % % % % % % ",
"_.5 O@i+% % % % % % % % % % % % % % % % % % % % % % % % % % % % % % % 1.E+P@-@;@j           s r y.e.f.~ % % % % % % % % % % % % % % % % % % ",
"   .` d.v+A.g.% % % % % % % % % % % % % % % % % % % % % % % % % % % % % % g.w+m A ]@^@          9 8 Q@R@S@T@% % % % % % % % % % % % % % % % ",
"      J I H U@V@W@% % % % % % % % % % % % % % % % % % % % % % % % % % % % % % % i+X@Y@1@2@T           V.W.4@Z@`@D@% % % % % % % % % % % % % ",
"j           s r  #9+Y.: % % % % % % % % % % % % % % % % % % % % % % % % % % % % % % ~ .#'@c@+#>             9@0@@###$#% % % % % % % % % % % ",
"%#&#^@          9 8 Q@*#=#>+% % % % % % % % % % % % % % % % % % % % % % % % % % % % % % % E S.@@[.<.:.          h@i@j@-#;#>#% % % % % % % % ",
"].{.,#R 2@T           V.W.4@'#{.].% % % % % % % % % % % % % % % % % % % % % % % % % % % % % % % @+#+*#- n@5+          )#G@)+$.!#% % % % % % ",
"% % % #.* ~#, >             9@0@{#5.6.~ % % % % % % % % % % % % % % % % % % % % % % % % % % % % % % {+]+]#s@t@u@          C@B@A@}.|.O % % % ",
"% % % % % : < [ [.<.:.          h@i@j@^#/#(#% % % % % % % % % % % % % % % % % % % % % % % % % % % % % % % 1._#:#A@B@C@          u@<#$@[#}#B.",
"% % % % % % % % y |#1#- n@5+          )#G@2#z.A.B.% % % % % % % % % % % % % % % % % % % % % % % % % % % % % % g.a+b+2#G@)#          5+n@- 3#",
"% % % % % % % % % % B.A.z.} t@u@          C@B@A@4#|#y % % % % % % % % % % % % % % % % % % % % % % % % % % % % % % % 7 p+5#6#i@h@          :.",
"% % % % % % % % % % % % % (#/#^#A@B@C@          u@t@s@[ < : % % % % % % % % % % % % % % % % % % % % % % % % % % % % % % ~ z+7#H+0@9@        ",
"% % % % % % % % % % % % % % % ~ 6.5.8#G@)#          5+n@- = * #.% % % % % % % % % % % % % % % % % % % % % % % % % % % % % % % 9#`. +4@3@V.  ",
"% % % % % % % % % % % % % % % % % % ].{.'#j@i@h@          :.<.[.,#{.].% % % % % % % % % % % % % % % % % % % % % % % % % % % % % % % 0##+a#L.",
"% % % % % % % % % % % % % % % % % % % % % >+;+b#0@9@            > , c#d#:@% % % % % % % % % % % % % % % % % % % % % % % % % % % % % % % {+e#",
"% % % % % % % % % % % % % % % % % % % % % % % : Y.9+4@W.V.          T 2@R f#( _ % % % % % % % % % % % % % % % % % % % % % % % % % % % % % % ",
"% % % % % % % % % % % % % % % % % % % % % % % % % % W@V@g#L.8 9           ^@&# #c d ~ % % % % % % % % % % % % % % % % % % % % % % % % % % % ",
"% % % % % % % % % % % % % % % % % % % % % % % % % % % % g.A.v+h#r s           j ;@k+i#j#k#% % % % % % % % % % % % % % % % % % % % % % % % % ",
"% % % % % % % % % % % % % % % % % % % % % % % % % % % % % % % i+O@5 H I J           s.x+q.M N D@% % % % % % % % % % % % % % % % % % % % % % ",
"% % % % % % % % % % % % % % % % % % % % % % % % % % % % % % % % % ~ ! p B+`  .            F+G+l#* $#% % % % % % % % % % % % % % % % % % % % ",
"% % % % % % % % % % % % % % % % % % % % % % % % % % % % % % % % % % % % E F G '.).!.          M+L+K+m#;#L@% % % % % % % % % % % % % % % % % ",
"n#{+% % % % % % % % % % % % % % % % % % % % % % % % % % % % % % % % % % % % % X Y o#+...            Z+!+p## $ % % % % % % % % % % % % % % % ",
"G@q#U+T+% % % % % % % % % % % % % % % % % % % % % % % % % % % % % % % % % % % % % : >.r#i.j.k.          t+s+r+s#t#O % % % % % % % % % % % % ",
"  t+u#v#w#x#e@% % % % % % % % % % % % % % % % % % % % % % % % % % % % % % % % % % % % % 1.2.y#v u t           d+c+} z#A#~ % % % % % % % % % ",
"        d+B#L 7@}#B.% % % % % % % % % % % % % % % % % % % % % % % % % % % % % % % % % % % % g.h.m b H.0           5+4+3+C#D#H@% % % % % % % ",
")#          5+E#F#G#H#I#% % % % % % % % % % % % % % % % % % % % % % % % % % % % % % % % % % % % % 7 v.J#^ ] U.          _+(+/+F@`@K#% % % % ",
"L#<+:+{           M#W.4@F@N#D@% % % % % % % % % % % % % % % % % % % % % % % % % % % % % % % % % % % % ~ I.J.2#%+.             &+%+O#y@x@% % ",
"B.}#7@d.=+.             9@P#9.Q#$#% % % % % % % % % % % % % % % % % % % % % % % % % % % % % % % % % % % % % E S.R#/+(+_+          U.] ^ r@S#",
"% % % e@x#T#U#(+M#          V#W#X#m#Y#L@% % % % % % % % % % % % % % % % % % % % % % % % % % % % % % % % % % % % % @+#+l+3+E#5+          0 a ",
"% % % % % % T+Z#=.3+4+5+          ~+!+8+# `#% % % % % % % % % % % % % % % % % % % % % % % % % % % % % % % % % % % % % {+]+k@R.c+d+          ",
"% % % % % % % % {+e#^+R.<# $          J ++.+f#.$_ % % % % % % % % % % % % % % % % % % % % % % % % % % % % % % % % % % % % % D 1++$r+@$J     ",
"% % % % % % % % % % % 1._#U@#$B@t+          s x.y.z A.B.% % % % % % % % % % % % % % % % % % % % % % % % % % % % % % % % % % % % o a+b+8@!+~+",
"% % % % % % % % % % % % % g.w+v+2#G@)#          9 8 F.$$N.%$% % % % % % % % % % % % % % % % % % % % % % % % % % % % % % % % % % % % % o+&$q+",
"% % % % % % % % % % % % % % % % i+O@Q+<+:+{           *$x+q.9+0+: % % % % % % % % % % % % % % % % % % % % % % % % % % % % % % % % % % % % B.",
"% % % % % % % % % % % % % % % % % % ~ 6.5.=$=+-$            F+0.M@m+n+% % % % % % % % % % % % % % % % % % % % % % % % % % % % % % % % % % % ",
"% % % % % % % % % % % % % % % % % % % % % ].{.J@U#(+M#          M+P+;$>$F E % % % % % % % % % % % % % % % % % % % % % % % % % % % % % % % % ",
"% % % % % % % % % % % % % % % % % % % % % % % % #.* ,$3+4+5+           .'$' '@.#~ % % % % % % % % % % % % % % % % % % % % % % % % % % % % % "};
