/* XPM */
static char * ea_texture_xpm[] = {
"70 70 260 2",
"  	c #F8F8F8",
". 	c #949494",
"+ 	c #222222",
"@ 	c #030303",
"# 	c #020202",
"$ 	c #565554",
"% 	c #FBF5F0",
"& 	c #FEF7F2",
"* 	c #CFCBC9",
"= 	c #101010",
"- 	c #030202",
"; 	c #080503",
"> 	c #180C05",
", 	c #180D05",
"' 	c #150B04",
") 	c #010101",
"! 	c #040404",
"~ 	c #131414",
"{ 	c #141515",
"] 	c #080909",
"^ 	c #0E0803",
"/ 	c #572E13",
"( 	c #F98D42",
"_ 	c #FD8F43",
": 	c #C87033",
"< 	c #1D0F05",
"[ 	c #040505",
"} 	c #170B05",
"| 	c #212121",
"1 	c #8B491A",
"2 	c #D97328",
"3 	c #DA7429",
"4 	c #DA7328",
"5 	c #C46724",
"6 	c #040202",
"7 	c #1F2121",
"8 	c #B3BDBE",
"9 	c #C0CACB",
"0 	c #494D4E",
"a 	c #804318",
"b 	c #F27E2C",
"c 	c #FE832E",
"d 	c #FE822E",
"e 	c #E2772A",
"f 	c #B4BEBE",
"g 	c #202122",
"h 	c #C26623",
"i 	c #D97129",
"j 	c #D5692D",
"k 	c #87421D",
"l 	c #FD812D",
"m 	c #FE822D",
"n 	c #FD822D",
"o 	c #DF7328",
"p 	c #050302",
"q 	c #222525",
"r 	c #C9D4D5",
"s 	c #D7E3E4",
"t 	c #525757",
"u 	c #030301",
"v 	c #924C1B",
"w 	c #FC832D",
"x 	c #FF832E",
"y 	c #FC822D",
"z 	c #030201",
"A 	c #D6E3E4",
"B 	c #CAD5D6",
"C 	c #242626",
"D 	c #DC7328",
"E 	c #FD812E",
"F 	c #FC802E",
"G 	c #F37632",
"H 	c #170C05",
"I 	c #E07329",
"J 	c #232525",
"K 	c #D8E3E4",
"L 	c #525758",
"M 	c #FD832E",
"N 	c #CBD6D7",
"O 	c #DD7328",
"P 	c #F57732",
"Q 	c #D66A2D",
"R 	c #020201",
"S 	c #FD832D",
"T 	c #E07428",
"U 	c #FD842E",
"V 	c #DD7428",
"W 	c #F67832",
"X 	c #D66B2D",
"Y 	c #824218",
"Z 	c #924A1B",
"` 	c #934B1B",
" .	c #934A1B",
"..	c #565B5B",
"+.	c #020101",
"@.	c #552B10",
"#.	c #CBD7D8",
"$.	c #252727",
"%.	c #814117",
"&.	c #92491B",
"*.	c #8D431D",
"=.	c #7D3C1A",
"-.	c #0E0703",
";.	c #525858",
">.	c #D3DFE0",
",.	c #97A0A1",
"'.	c #545A5A",
").	c #070808",
"!.	c #434747",
"~.	c #4A4F50",
"{.	c #4B5050",
"].	c #4B5051",
"^.	c #6D7374",
"/.	c #D4E0E1",
"(.	c #8E9798",
"_.	c #4E5354",
":.	c #6E7575",
"<.	c #424747",
"[.	c #080808",
"}.	c #141516",
"|.	c #C0CBCB",
"1.	c #D8E4E5",
"2.	c #D6E1E2",
"3.	c #D7E4E5",
"4.	c #BFCACA",
"5.	c #B7C2C2",
"6.	c #CDD9DA",
"7.	c #CEDADB",
"8.	c #D4E1E1",
"9.	c #B6C1C2",
"0.	c #1E1F1F",
"a.	c #212323",
"b.	c #222424",
"c.	c #4D5353",
"d.	c #C3CECF",
"e.	c #4E5353",
"f.	c #1D1F1F",
"g.	c #5D6363",
"h.	c #140B04",
"i.	c #B96222",
"j.	c #D36E27",
"k.	c #9B501D",
"l.	c #3A3D3D",
"m.	c #D36C27",
"n.	c #CE642B",
"o.	c #B35826",
"p.	c #130904",
"q.	c #030302",
"r.	c #FC812D",
"s.	c #B75F21",
"t.	c #D4682C",
"u.	c #160B05",
"v.	c #040303",
"w.	c #B76022",
"x.	c #D97428",
"y.	c #F47732",
"z.	c #D5692C",
"A.	c #120904",
"B.	c #A1551E",
"C.	c #874619",
"D.	c #3B3E3E",
"E.	c #874519",
"F.	c #B65E22",
"G.	c #B35725",
"H.	c #9C4D21",
"I.	c #110904",
"J.	c #6B7171",
"K.	c #6A7171",
"L.	c #010102",
"M.	c #060606",
"N.	c #333636",
"O.	c #393D3D",
"P.	c #CAD5D5",
"Q.	c #BDC7C8",
"R.	c #BCC7C7",
"S.	c #5A6060",
"T.	c #BFCACB",
"U.	c #D0DCDD",
"V.	c #7A8181",
"W.	c #3C4040",
"X.	c #7A8182",
"Y.	c #C0CBCC",
"Z.	c #5B6161",
"`.	c #484D4D",
" +	c #D2DEDF",
".+	c #8B9393",
"++	c #8A9393",
"@+	c #4A4F4F",
"#+	c #A3551D",
"$+	c #232526",
"%+	c #CAD6D7",
"&+	c #6B3814",
"*+	c #B86022",
"=+	c #6B3714",
"-+	c #555A5A",
";+	c #A2541D",
">+	c #9D4D21",
",+	c #E07328",
"'+	c #F47632",
")+	c #040403",
"!+	c #050505",
"~+	c #914B1B",
"{+	c #FB822D",
"]+	c #DC7228",
"^+	c #BD6122",
"/+	c #535858",
"(+	c #7C4017",
"_+	c #D46E27",
":+	c #BB6022",
"<+	c #B55A26",
"[+	c #140A04",
"}+	c #D1DDDE",
"|+	c #7E8686",
"1+	c #3E4242",
"2+	c #B2BDBE",
"3+	c #5E6464",
"4+	c #232626",
"5+	c #5D6464",
"6+	c #CEDADA",
"7+	c #B4BFBF",
"8+	c #3E4243",
"9+	c #D5E1E2",
"0+	c #CFDBDC",
"a+	c #4C5152",
"b+	c #D0DDDE",
"c+	c #7F8787",
"d+	c #767D7D",
"e+	c #777E7E",
"f+	c #6B3614",
"g+	c #3C3F3F",
"h+	c #8E441D",
"i+	c #7C3B1A",
"j+	c #B86021",
"k+	c #D56A2D",
"l+	c #060505",
"m+	c #060605",
"n+	c #D3682C",
"o+	c #160A05",
"p+	c #DD7529",
"q+	c #F9812D",
"r+	c #FE832D",
"s+	c #FA812D",
"t+	c #DB7429",
"u+	c #85411D",
"v+	c #070503",
"w+	c #252525",
"x+	c #1B0E05",
"y+	c #965224",
"z+	c #FD8F42",
"A+	c #FE9043",
"B+	c #8E4C20",
"C+	c #1A0E05",
"D+	c #989898",
"E+	c #090909",
"F+	c #9E9B99",
"G+	c #FEF8F3",
"H+	c #92908E",
"I+	c #050404",
"J+	c #232323",
"K+	c #979797",
"  . + @ # # # # # # # # # # # # # # # # # # # # # @ $ % & * = - # # # # # # # # # # # # # # # # # # # # # # # # # # # # # # # # # # @ + .   ",
". @ ; > , , , , , , , , , , > ' ) ! ~ { ] ) ^ , , , / ( _ : < , , , , , , , , , , , , , , , , ^ ) ] { ~ [ ) ' > , , , , , , , , , > } ; @ . ",
"| ; 1 2 3 3 3 3 3 3 3 3 3 3 4 5 6 7 8 9 0 - a 3 3 3 b c d c e 3 3 3 3 3 3 3 3 3 3 3 3 3 3 3 3 a - 0 9 f g # h 2 3 3 3 3 3 3 3 3 3 i j k ; + ",
"@ > 2 l m d d d d d d d d d n o p q r s t u v w d d d x x x d d d d d d d d d d d d d d d d y v z t A B C - D n d d d d d d d d E F G j H @ ",
"# , 3 m x x x x x x x x x x m I p J B K L z v M x x x x x x x x x x x x x x x x x x x x x x M v z L s N C - O m x x x x x x x x d E P Q H - ",
"# , 3 d x x x x x x x x x x m I p J B K L z v M x x x x x x x x x x x x x x x x x x x x x x M v z L s N C - O m x x x x x x x x d E P Q H R ",
"# , 3 d x x x x x x x x x x m I p J B K L z v M x x x x x x x x x x x x x x x x x x x x x x M v z L s N C - O m x x x x x x x x d E P Q H - ",
"# , 3 d x x x x x x x x x x m I p J B K L z v M x x x x x x x x x x x x x x x x x x x x x x M v z L s N C - O m x x x x x x x x d E P Q H # ",
"# , 3 d x x x x x x x x x x m I p J B K L u v M x x x x x x x x x x x x x x x x x x x x x x M v z L s N C - O m x x x x x x x x d E P Q H # ",
"# , 3 d x x x x x x x x x x m I p J B K L z v M x x x x x x x x x x x x x x x x x x x x x x M v z L s N C - O m x x x x x x x x d E P Q H # ",
"# , 3 d x x x x x x x x x x m I p J B K L z v M x x x x x x x x x x x x x x x x x x x x x x M v z L s N C - O m x x x x x x x x d E P Q H # ",
"# , 3 d x x x x x x x x x x m I p J B K L z v M x x x x x x x x x x x x x x x x x x x x x x M v z L s N C - O m x x x x x x x x d E P Q H # ",
"# , 3 n c c c c c c c c c c S T p J B K L z v U c c c c c c c c c c c c c c c c c c c c c c U v z L s N C - V S c c c c c c c c c E W X H @ ",
"# ^ Y Z ` ` ` ` ` ` ` ` ` `  .Y z C N s ..+.@.` ` ` ` ` ` ` ` ` ` ` ` ` ` ` ` ` ` ` ` ` ` ` ` @.+...s #.$.+.%. .` ` ` ` ` ` ` ` ` &.*.=.-.# ",
"# ) # @ @ @ @ @ @ @ @ @ @ @ @ @ # ;.>.>.,.# @ @ @ @ @ @ @ @ @ @ @ @ @ @ @ @ @ @ @ @ @ @ @ @ @ @ # ,.>.>.'.# @ @ @ @ @ @ @ @ @ @ @ @ @ # # # ",
"# ).!.~.{.{.{.{.{.{.{.{.{.{.{.].^.N /././.(._.{.{.{.{.{.{.{.{.{.{.{.{.{.{.{.{.{.{.{.{.{.{.{.{._.(./././.#.:.].{.{.{.{.{.{.{.{.{.{.{.~.<.[.@ ",
"# }.|.s 1.1.1.1.1.1.1.1.1.1.1.1.2.>././././.3.1.1.1.1.1.1.1.1.1.1.1.1.1.1.1.1.1.1.1.1.1.1.1.1.3././././.>.2.1.1.1.1.1.1.1.1.1.1.1.1.s 4.{ @ ",
"# ~ 5.6.7.7.7.7.7.7.7.7.7.7.7.7.7.7.7.7.7.7.7.7.7.7.7.7.7.7.7.7.8./././././.7.7.7.7.7.7.7.7.7.7.7.7.7.7.7.7.7.7.7.7.7.7.7.7.7.7.7.7.6.9.~ @ ",
"# ! 0.a.a.a.a.a.a.a.a.a.a.a.a.a.a.a.a.a.a.a.a.a.a.a.a.a.a.a.a.b.c.d././.d.e.b.a.a.a.a.a.a.a.a.a.a.a.a.a.a.a.a.a.a.a.a.a.a.a.a.a.a.a.a.f.! @ ",
"# +.) +.+.+.+.+.+.+.+.+.+.+.+.+.+.+.+.+.+.+.+.+.+.+.+.+.+.+.+.+.@ g././.g.@ +.+.+.+.+.+.+.+.+.+.+.+.+.+.+.+.+.+.+.+.+.+.+.+.+.+.+.+.+.) +.# ",
"# h.i.j.j.j.j.j.j.j.j.j.j.j.j.j.j.j.j.j.j.j.j.j.j.j.j.j.j.j.j.k.# l././.l.# k.j.j.j.j.j.j.j.j.j.j.j.j.j.j.j.j.j.j.j.j.j.j.j.j.j.j.m.n.o.p.q.",
"# > 2 r.n n n n n n n n n n n n n n n n n n n n n n n n n n r.s.- l././.l.- s.r.n n n n n n n n n n n n n n n n n n n n n n n n n F G t.u.v.",
"# , 3 d x x x x x x x x x x x x x x x x x x x x x x x x x x n w.- l././.l.- w.n x x x x x x x x x x x x x x x x x x x x x x x x d E P j } @ ",
"# , 3 d x x x x x x x x x x x x x x x x x x x x x x x x x x n w.- l././.l.- w.n x x x x x x x x x x x x x x x x x x x x x x x x d E P j } @ ",
"# , 3 d x x x x x x x x x x x x x x x x x x x x x x x x x x n w.- l././.l.- w.n x x x x x x x x x x x x x x x x x x x x x x x x d E P j } v.",
"# , 3 d x x x x x x x x x x x x x x x x x x x x x x x x x x n w.- l././.l.- w.n x x x x x x x x x x x x x x x x x x x x x x x x d E P j } v.",
"# , 3 d x x x x x x x x x x x x x x x x x x x x x x x x x x n w.- l././.l.- w.n x x x x x x x x x x x x x x x x x x x x x x x x d E P j } v.",
"# , 3 d x x x x x x x x x x x x x x x x x x x x x x x x x x n w.- l././.l.- w.n x x x x x x x x x x x x x x x x x x x x x x x x d E P j } v.",
"# , 3 d x x x x x x x x x x x x x x x x x x x x x x x x x x n w.- l././.l.- w.n x x x x x x x x x x x x x x x x x x x x x x x x d E P j } v.",
"# , 3 d x x x x x x x x x x x x x x x x x x x x x x x x x x n w.- l././.l.- w.n x x x x x x x x x x x x x x x x x x x x x x x x d E P j } v.",
"# , x.y n n n n n n n n n n n n n n n n n n n n n n n n n n y s.- l././.l.- s.y n n n n n n n n n n n n n n n n n n n n n n n n n F y.z.} v.",
"# A.B.s.w.w.w.w.w.w.w.w.w.w.w.w.w.w.w.w.w.w.w.w.w.w.w.w.w.w.s.C.# D././.D.# E.s.w.w.w.w.w.w.w.w.w.w.w.w.w.w.w.w.w.w.w.w.w.w.w.w.w.F.G.H.I.! ",
"# ) # - - - - - - - - - - - - - - - - - - - - - - - - - - - - # # J././.K.# # - - - - - - - - - - - - - - - - - - - - - - - - - - - - # L.! ",
"# M.N.O.l.l.l.l.l.l.l.l.l.l.l.l.l.l.l.l.l.l.l.l.l.l.l.l.l.l.l.D.J.P././.B J.D.l.l.l.l.l.l.l.l.l.l.l.l.l.l.l.l.l.l.l.l.l.l.l.l.l.l.l.O.N.M.! ",
"# { Q.>././././././././././././././././././././././././././././././././././././././././././././././././././././././././././././././.>.R.{ ! ",
"# { Q.>././././././././././././././././././././././././././././././././././././././././././././././././././././././././././././././.>.R.{ ! ",
"# M.N.O.l.l.l.l.l.l.l.l.l.l.l.l.S.T././.U.V.W.l.l.l.l.l.l.l.l.l.l.l.l.l.l.l.l.l.l.l.l.l.l.l.l.W.X.U././.Y.Z.l.l.l.l.l.l.l.l.l.l.l.l.O.N.M.@ ",
"# ) # - - - - - - - - - - - - # # `. +/..+@ # - - - - - - - - - - - - - - - - - - - - - - - - # @ ++/. +@+# # - - - - - - - - - - - - # L.@ ",
"# A.B.s.w.w.w.w.w.w.w.w.w.w.s.#+z $+%+s '.z &+*+w.w.w.w.w.w.w.w.w.w.w.w.w.w.w.w.w.w.w.w.w.w.*+=+z -+s #.$.+.;+s.w.w.w.w.w.w.w.w.w.F.G.>+A.! ",
"# , x.y n n n n n n n n n n y ,+p J B K L z v w n n n n n n n n n n n n n n n n n n n n n n w v z L s N C - O y n n n n n n n n n F '+Q H )+",
"# , 3 d x x x x x x x x x x m I p J B K L z v M x x x x x x x x x x x x x x x x x x x x x x M v z L s N C - O m x x x x x x x x d E P Q H ! ",
"# , 3 d x x x x x x x x x x m I p J B K L z v M x x x x x x x x x x x x x x x x x x x x x x M v z L s N C - O m x x x x x x x x d E P Q H ! ",
"# , 3 d x x x x x x x x x x m I p J B K L z v M x x x x x x x x x x x x x x x x x x x x x x M v z L s N C - O m x x x x x x x x d E P Q H ! ",
"# , 3 d x x x x x x x x x x m I p J B K L u v M x x x x x x x x x x x x x x x x x x x x x x M v z L s N C - O m x x x x x x x x d E P Q H ! ",
"# , 3 d x x x x x x x x x x m I p J B K L z v M x x x x x x x x x x x x x x x x x x x x x x M v z L s N C - O m x x x x x x x x d E P Q H ! ",
"# , 3 d x x x x x x x x x x m I p J B K L z v M x x x x x x x x x x x x x x x x x x x x x x M v z L s N C - O m x x x x x x x x d E P Q H ! ",
"# , 3 d x x x x x x x x x x m I p J B K L z v M x x x x x x x x x x x x x x x x x x x x x x M v z L s N C - O m x x x x x x x x d E P Q H !+",
"# , 3 d x x x x x x x x x x m I p J B K L z v M x x x x x x x x x x x x x x x x x x x x x x M v z L s N C - O m x x x x x x x x d E P Q H ! ",
"# > 2 r.n n n n n n n n n n y o p J B K L u ~+{+n n n n n n n n n n n n n n n n n n n n n n {+~+z L s N C - ]+y n n n n n n n n n F G j H ! ",
"# h.i.j.j.j.j.j.j.j.j.j.j.j.j.^+6 J B K /+z (+_+j.j.j.j.j.j.j.j.j.j.j.j.j.j.j.j.j.j.j.j.j.j._+(+z /+s N C R :+j.j.j.j.j.j.j.j.j.j.m.n.<+[+! ",
"# +.) +.+.+.+.+.+.+.+.+.+.+.+.+.# W.}+/.|+@ +.+.+.+.+.+.+.+.+.+.+.+.+.+.+.+.+.+.+.+.+.+.+.+.+.+.@ |+/.}+1+# +.+.+.+.+.+.+.+.+.+.+.+.+.) +.!+",
"# ! 0.a.a.a.a.a.a.a.a.a.a.a.a.a.1+2+/./.7.3+4+a.a.a.a.a.a.a.a.a.a.a.a.a.a.a.a.a.a.a.a.a.a.a.a.4+5+6+/./.7+8+a.a.a.a.a.a.a.a.a.a.a.a.a.f.! ! ",
"# ~ 5.6.7.7.7.7.7.7.7.7.7.7.7.7./././././.9+0+7.7.7.7.7.7.7.7.7.7.7.7.7.7.7.7.7.7.7.7.7.7.7.7.0+9+/././././.7.7.7.7.7.7.7.7.7.7.7.7.6.9.~ !+",
"# }.|.s 1.1.1.1.1.1.1.1.1.1.1.1.1.1.1.1.1.1.1.1.1.1.1.1.1.1.1.1.9+/./././.9+1.1.1.1.1.1.1.1.1.1.1.1.1.1.1.1.1.1.1.1.1.1.1.1.1.1.1.1.s 4.{ !+",
"# ).!.~.{.{.{.{.{.{.{.{.{.{.{.{.{.{.{.{.{.{.{.{.{.{.{.{.{.{.{.a+|+b+/./.}+c+a+{.{.{.{.{.{.{.{.{.{.{.{.{.{.{.{.{.{.{.{.{.{.{.{.{.{.{.~.<.[.! ",
"# ) # @ @ @ @ @ @ @ @ @ @ @ @ @ @ @ @ @ @ @ @ @ @ @ @ @ @ @ @ @ # d+/./.e+# @ @ @ @ @ @ @ @ @ @ @ @ @ @ @ @ @ @ @ @ @ @ @ @ @ @ @ @ @ # # !+",
"# ^ Y Z ` ` ` ` ` ` ` ` ` ` ` ` ` ` ` ` ` ` ` ` ` ` ` ` ` `  .f+# g+/./.g+# f+ .` ` ` ` ` ` ` ` ` ` ` ` ` ` ` ` ` ` ` ` ` ` ` ` ` &.h+i+-.!+",
"# , 3 n c c c c c c c c c c c c c c c c c c c c c c c c c c S j+- l././.l.- j+S c c c c c c c c c c c c c c c c c c c c c c c c c E W k+} !+",
"# , 3 d x x x x x x x x x x x x x x x x x x x x x x x x x x n w.- l././.l.- w.n x x x x x x x x x x x x x x x x x x x x x x x x d E y.j } !+",
"# , 3 d x x x x x x x x x x x x x x x x x x x x x x x x x x n w.- l././.l.- w.n x x x x x x x x x x x x x x x x x x x x x x x x d E y.j } !+",
"# , 3 d x x x x x x x x x x x x x x x x x x x x x x x x x x n w.- l././.l.- w.n x x x x x x x x x x x x x x x x x x x x x x x x d E y.j } l+",
"# , 3 d x x x x x x x x x x x x x x x x x x x x x x x x x x n w.- l././.l.- w.n x x x x x x x x x x x x x x x x x x x x x x x x d E y.j } !+",
"# , 3 d x x x x x x x x x x x x x x x x x x x x x x x x x x n w.- l././.l.- w.n x x x x x x x x x x x x x x x x x x x x x x x x d E y.j } !+",
"# , 3 d x x x x x x x x x x x x x x x x x x x x x x x x x x n w.- l././.l.- w.n x x x x x x x x x x x x x x x x x x x x x x x x d E y.j } !+",
"# , 3 d x x x x x x x x x x x x x x x x x x x x x x x x x x n w.- l././.l.- w.n x x x x x x x x x x x x x x x x x x x x x x x x d E y.j } m+",
"# , 3 m x x x x x x x x x x x x x x x x x x x x x x x x x x n w.- l././.l.- w.n x x x x x x x x x x x x x x x x x x x x x x x x d E y.j } M.",
"@ > 2 l m d d d x x c d d d d d d d d d d d d d d d d d d d y s.- O.>.>.O.- s.y d d d d d d d d d d d d d d d d d d d d d d d d E F G n+o+M.",
"+ ; 1 2 3 3 p+q+r+d s+t+3 3 3 3 3 3 3 3 3 3 3 3 3 3 3 3 3 3 x.B.# N.Q.Q.N.# B.x.3 3 3 3 3 3 3 3 3 3 3 3 3 3 3 3 3 3 3 3 3 3 3 3 3 i j u+v+w+",
". @ ; > , , x+y+z+A+B+C+, , , , , , , , , , , , , , , , , , , A.) M.{ { M.) A., , , , , , , , , , , , , , , , , , , , , , , , , , > } v+@ D+",
"  . | q.# # E+F+G+& H+I+# # # # # # # # # # # # # # # # # # # # # # # # # # # # # # # # # # # # # # # # # # # # # # # # # # # # # # @ J+K+  "};
