/* XPM */
static char * textur_xpm[] = {
"70 70 37 1",
" 	c #FF914D",
".	c #2E2722",
"+	c #FAFAFA",
"@	c #FFFFFF",
"#	c #2E2E2E",
"$	c #FA904F",
"%	c #6A442C",
"&	c #D1D1D1",
"*	c #6B6B6B",
"=	c #D18354",
"-	c #7F4826",
";	c #171311",
">	c #F0F0F0",
",	c #232323",
"'	c #7D4827",
")	c #834C2A",
"!	c #352216",
"~	c #C2C2C2",
"{	c #5C5C5C",
"]	c #68412A",
"^	c #7F7F7F",
"/	c #F2F2F2",
"(	c #8C8C8C",
"_	c #868686",
":	c #848484",
"<	c #D8D8D8",
"[	c #A6A6A6",
"}	c #BFBFBF",
"|	c #3F2413",
"1	c #6B442C",
"2	c #3E2A1E",
"3	c #775038",
"4	c #888888",
"5	c #E8E8E8",
"6	c #B4B4B4",
"7	c #8E8E8E",
"8	c #B5B5B5",
"              .+@@#$                           %&@@*=                 ",
"              .+@@#$                           %&@@*=                 ",
"              .+@@#$                           %&@@*=                 ",
"              .+@@#$                           %&@@*=                 ",
"              .+@@#$                           %&@@*=                 ",
"              .+@@#$                           %&@@*=                 ",
"              .+@@#$                           %&@@*=                 ",
"              .+@@#$                           %&@@*=                 ",
"              .+@@#$                           %&@@*=                 ",
"              .+@@#$                           %&@@*=                 ",
"              .+@@#$                           %&@@*=                 ",
"              .+@@#$                           %&@@*=                 ",
"--------------;>@@,'------------)----)---------!~@@{]-----------------",
"^^^^^^^^^^^^^^^/@@(^^^^^^^^^^^^^_:^^:_^^^^^^^^^^<@@[^^^^^^^^^^^^^^^^^^",
"@@@@@@@@@@@@@@@@@@@@@@@@@@@@@@@@@@@@@@@@@@@@@@@@@@@@@@@@@@@@@@@@@@@@@@",
"@@@@@@@@@@@@@@@@@@@@@@@@@@@@@@@@@@@@@@@@@@@@@@@@@@@@@@@@@@@@@@@@@@@@@@",
"^^^^^^^^^^^^^^^^^^^^^^^^^^^^^^^^^}@@}^^^^^^^^^^^^^^^^^^^^^^^^^^^^^^^^^",
"--------------------------------|^@@^|--------------------------------",
"                                -^@@^-                                ",
"                                -^@@^-                                ",
"                                -^@@^-                                ",
"                                -^@@^-                                ",
"                                -^@@^-                                ",
"                                -^@@^-                                ",
"                                -^@@^-                                ",
"                                -^@@^-                                ",
"                                -^@@^-                                ",
"                                -^@@^-                                ",
"                                -^@@^-                                ",
"                                -^@@^-                                ",
"                                -^@@^-                                ",
"                                -^@@^-                                ",
"--------------------------------|^@@^|--------------------------------",
"^^^^^^^^^^^^^^^^^^^^^^^^^^^^^^^^^}@@}^^^^^^^^^^^^^^^^^^^^^^^^^^^^^^^^^",
"@@@@@@@@@@@@@@@@@@@@@@@@@@@@@@@@@@@@@@@@@@@@@@@@@@@@@@@@@@@@@@@@@@@@@@",
"@@@@@@@@@@@@@@@@@@@@@@@@@@@@@@@@@@@@@@@@@@@@@@@@@@@@@@@@@@@@@@@@@@@@@@",
"^^^^^^^^^^^^^^^/@@(^^^^^^^^^^^^^^^^^^^^^^^^^^^^^<@@[^^^^^^^^^^^^^^^^^^",
"--------------;>@@,'---------------------------!~@@{]-----------------",
"              .+@@#$                           1&@@*=                 ",
"              .+@@#$                           1&@@*=                 ",
"              .+@@#$                           1&@@*=                 ",
"              .+@@#$                           1&@@*=                 ",
"              .+@@#$                           1&@@*=                 ",
"              .+@@#$                           1&@@*=                 ",
"              .+@@#$                           1&@@*=                 ",
"              .+@@#$                           1&@@*=                 ",
"              .+@@#$                           1&@@*=                 ",
"              .+@@#$                           1&@@*=                 ",
"              .+@@#$                           1&@@*=                 ",
"              .+@@#$                           1&@@*=                 ",
"              .+@@#$                           1&@@*=                 ",
"              .+@@#$                           1&@@*=                 ",
"--------------;>@@,'---------------------------2&@@*3-----------------",
"^^^^^^^^^^^^^^^/@@(^^^^^^^^^^^^^^^^^^^^^^^^^^^^45@@67^^^^^^^^^^^^^^^^^",
"@@@@@@@@@@@@@@@@@@@@@@@@@@@@@@@@@@@@@@@@@@@@@@@@@@@@@@@@@@@@@@@@@@@@@@",
"@@@@@@@@@@@@@@@@@@@@@@@@@@@@@@@@@@@@@@@@@@@@@@@@@@@@@@@@@@@@@@@@@@@@@@",
"^^^^^^^^^^^^^^^^^^^^^^^^^^^^^^^^45@@87^^^^^^^^^^^^^^^^^^^^^^^^^^^^^^^^",
"--------------------------------2&@@*3--------------------------------",
"                                1&@@*=                                ",
"                                1&@@*=                                ",
"                                1&@@*=                                ",
"                                1&@@*=                                ",
"                                1&@@*=                                ",
"                                1&@@*=                                ",
"                                1&@@*=                                ",
"                                1&@@*=                                ",
"                                1&@@*=                                ",
"                                1&@@*=                                ",
"                                1&@@*=                                ",
"                                1&@@*=                                "};
