/* XPM */
static char * textureaaa_xpm[] = {
"70 70 26 1",
" 	c #FF914D",
".	c #948D89",
"+	c #FFFFFF",
"@	c #999999",
"#	c #FA904F",
"$	c #9D775F",
"%	c #CCCCCC",
"&	c #D18354",
"*	c #7F4826",
"=	c #7D7A77",
"-	c #7D4827",
";	c #834C2A",
">	c #685549",
",	c #68412A",
"'	c #E6E6E6",
")	c #F0F0F0",
"!	c #F5F5F5",
"~	c #E7E7E7",
"{	c #EBEBEB",
"]	c #FAFAFA",
"^	c #996240",
"/	c #593D2C",
"(	c #3F2413",
"_	c #9E775F",
":	c #715D51",
"<	c #775038",
"              .+++@#                           $+++%&                 ",
"              .+++@#                           $+++%&                 ",
"              .+++@#                           $+++%&                 ",
"              .+++@#                           $+++%&                 ",
"              .+++@#                           $+++%&                 ",
"              .+++@#                           $+++%&                 ",
"              .+++@#                           $+++%&                 ",
"              .+++@#                           $+++%&                 ",
"              .+++@#                           $+++%&                 ",
"              .+++@#                           $+++%&                 ",
"              .+++@#                           $+++%&                 ",
"              .+++@#                           $+++%&                 ",
"**************=+++@-************;****;*********>+++%,*****************",
"'''''''''''''')+++!'''''''''''''~~''~~'''''''''{+++]''''''''''''''''''",
"++++++++++++++++++++++++++++++++++++++++++++++++++++++++++++++++++++++",
"++++++++++++++++++++++++++++++++++++++++++++++++++++++++++++++++++++++",
"++++++++++++++++++++++++++++++++++++++++++++++++++++++++++++++++++++++",
"^^^^^^^^^^^^^^^^^^^^^^^^^^^^^^^^/++++/^^^^^^^^^^^^^^^^^^^^^^^^^^^^^^^^",
"                                *++++*                                ",
"                                *++++*                                ",
"                                *++++*                                ",
"                                *++++*                                ",
"                                *++++*                                ",
"                                *++++*                                ",
"                                *++++*                                ",
"                                *++++*                                ",
"                                *++++*                                ",
"                                *++++*                                ",
"                                *++++*                                ",
"                                *++++*                                ",
"                                *++++*                                ",
"                                *++++*                                ",
"********************************(++++(********************************",
"++++++++++++++++++++++++++++++++++++++++++++++++++++++++++++++++++++++",
"++++++++++++++++++++++++++++++++++++++++++++++++++++++++++++++++++++++",
"++++++++++++++++++++++++++++++++++++++++++++++++++++++++++++++++++++++",
"++++++++++++++++++++++++++++++++++++++++++++++++++++++++++++++++++++++",
"**************=+++@-***************************>+++%,*****************",
"              .+++@#                           _+++%&                 ",
"              .+++@#                           _+++%&                 ",
"              .+++@#                           _+++%&                 ",
"              .+++@#                           _+++%&                 ",
"              .+++@#                           _+++%&                 ",
"              .+++@#                           _+++%&                 ",
"              .+++@#                           _+++%&                 ",
"              .+++@#                           _+++%&                 ",
"              .+++@#                           _+++%&                 ",
"              .+++@#                           _+++%&                 ",
"              .+++@#                           _+++%&                 ",
"              .+++@#                           _+++%&                 ",
"              .+++@#                           _+++%&                 ",
"              .+++@#                           _+++%&                 ",
"**************=+++@-***************************:+++%<*****************",
"++++++++++++++++++++++++++++++++++++++++++++++++++++++++++++++++++++++",
"++++++++++++++++++++++++++++++++++++++++++++++++++++++++++++++++++++++",
"++++++++++++++++++++++++++++++++++++++++++++++++++++++++++++++++++++++",
"++++++++++++++++++++++++++++++++++++++++++++++++++++++++++++++++++++++",
"********************************:+++%<********************************",
"                                _+++%&                                ",
"                                _+++%&                                ",
"                                _+++%&                                ",
"                                _+++%&                                ",
"                                _+++%&                                ",
"                                _+++%&                                ",
"                                _+++%&                                ",
"                                _+++%&                                ",
"                                _+++%&                                ",
"                                _+++%&                                ",
"                                _+++%&                                ",
"                                _+++%&                                "};
